<svg xmlns="http://www.w3.org/2000/svg" xmlns:xlink="http://www.w3.org/1999/xlink" width="134.635" height="134.635" viewBox="0 0 134.635 134.635">
  <defs>
    <filter id="Ellipse_1" x="0" y="0" width="134.635" height="134.635" filterUnits="userSpaceOnUse">
      <feOffset dy="0.976" input="SourceAlpha"/>
      <feGaussianBlur stdDeviation="2.439" result="blur"/>
      <feFlood flood-opacity="0.2"/>
      <feComposite operator="in" in2="blur"/>
      <feComposite in="SourceGraphic"/>
    </filter>
  </defs>
  <g id="Group_35" data-name="Group 35" transform="translate(-126.017 -3452.697)">
    <g transform="matrix(1, 0, 0, 1, 126.02, 3452.7)" filter="url(#Ellipse_1)">
      <circle id="Ellipse_1-2" data-name="Ellipse 1" cx="60" cy="60" r="60" transform="translate(7.32 6.34)" fill="#faae41"/>
    </g>
    <g id="Group_34" data-name="Group 34">
      <path id="Path_94" data-name="Path 94" d="M217.651,3543.376h6.011v6.025H163v-6h6.013v-1.24q0-11.952-.01-23.9a1.272,1.272,0,0,1,.6-1.191q11.55-8.214,23.066-16.477a.894.894,0,0,1,1.258-.051q11.543,8.3,23.127,16.529a1.28,1.28,0,0,1,.6,1.192q-.024,11.748-.011,23.5Zm-21.277-12.166h5.993V3525.1h-6.011v-5.983h-6.1v6.027h-5.982v6.095h6.01v6.052c1.824,0,3.573-.024,5.32.012.6.011.791-.176.78-.783-.038-1.727-.014-3.455-.014-5.313" fill="#efefef"/>
      <path id="Path_95" data-name="Path 95" d="M223.705,3509.867a3.023,3.023,0,0,1-4.732,2.585c-2.289-1.478-4.541-3.014-6.809-4.526q-9.092-6.064-18.176-12.144a1.006,1.006,0,0,0-1.337.022q-12.312,8.24-24.646,16.448a3.251,3.251,0,0,1-3.055.539,2.835,2.835,0,0,1-1.933-2.3,2.9,2.9,0,0,1,1.107-2.949c.489-.38,1.024-.7,1.541-1.044q12.768-8.508,25.536-17.012a3.21,3.21,0,0,1,4.243-.016q13.3,8.88,26.6,17.747a3.128,3.128,0,0,1,1.659,2.65" fill="#efefef"/>
    </g>
  </g>
</svg>
